<?xml version="1.0" encoding="UTF-8"?>
<!DOCTYPE svg PUBLIC "-//W3C//DTD SVG 1.1//EN" "http://www.w3.org/Graphics/SVG/1.1/DTD/svg11.dtd">
<svg xmlns="http://www.w3.org/2000/svg" version="1.1" width="512px" height="511px" style="shape-rendering:geometricPrecision; text-rendering:geometricPrecision; image-rendering:optimizeQuality; fill-rule:evenodd; clip-rule:evenodd" xmlns:xlink="http://www.w3.org/1999/xlink">
<g><path style="opacity:0.978" fill="#199490" d="M 401.5,21.5 C 302.167,21.5 202.833,21.5 103.5,21.5C 85.8254,19.5801 73.9921,26.9135 68,43.5C 65.8594,69.8601 78.0261,82.8601 104.5,82.5C 203.5,82.5 302.5,82.5 401.5,82.5C 409.07,81.1643 412.903,84.1643 413,91.5C 412.021,93.9676 410.521,95.9676 408.5,97.5C 378.167,97.5 347.833,97.5 317.5,97.5C 251.167,97.5 184.833,97.5 118.5,97.5C 113.5,97.5 108.5,97.5 103.5,97.5C 93.9282,98.5147 84.9282,96.8481 76.5,92.5C 58.0252,81.8856 49.8585,65.8856 52,44.5C 55.8674,24.9033 67.3674,12.4033 86.5,7C 193.804,5.34609 301.137,5.01275 408.5,6C 412.861,8.22583 414.361,11.7258 413,16.5C 410.468,20.9072 406.635,22.5738 401.5,21.5 Z"/></g>
<g><path style="opacity:1" fill="#fdd682" d="M 103.5,21.5 C 87.8409,36.8335 85.3409,54.1668 96,73.5C 99.0379,76.3694 101.871,79.3694 104.5,82.5C 78.0261,82.8601 65.8594,69.8601 68,43.5C 73.9921,26.9135 85.8254,19.5801 103.5,21.5 Z"/></g>
<g><path style="opacity:1" fill="#fee1b7" d="M 103.5,21.5 C 202.833,21.5 302.167,21.5 401.5,21.5C 401.5,35.5 401.5,49.5 401.5,63.5C 401.5,69.8333 401.5,76.1667 401.5,82.5C 302.5,82.5 203.5,82.5 104.5,82.5C 101.871,79.3694 99.0379,76.3694 96,73.5C 85.3409,54.1668 87.8409,36.8335 103.5,21.5 Z"/></g>
<g><path style="opacity:0.937" fill="#fe9418" d="M 401.5,63.5 C 415.111,73.4448 427.445,84.7782 438.5,97.5C 429.833,97.5 421.167,97.5 412.5,97.5C 411.167,97.5 409.833,97.5 408.5,97.5C 410.521,95.9676 412.021,93.9676 413,91.5C 412.903,84.1643 409.07,81.1643 401.5,82.5C 401.5,76.1667 401.5,69.8333 401.5,63.5 Z"/></g>
<g><path style="opacity:0.989" fill="#fe9418" d="M 76.5,92.5 C 84.9282,96.8481 93.9282,98.5147 103.5,97.5C 102.531,98.3094 101.698,99.3094 101,100.5C 100.333,124.167 100.333,147.833 101,171.5C 101.513,172.527 102.013,173.527 102.5,174.5C 97.5,174.5 92.5,174.5 87.5,174.5C 82.1563,174.334 76.8229,174.501 71.5,175C 70.3333,175.5 69.5,176.333 69,177.5C 68.3333,201.5 68.3333,225.5 69,249.5C 69.5,250.667 70.3333,251.5 71.5,252C 76.8229,252.499 82.1563,252.666 87.5,252.5C 96.8333,252.5 106.167,252.5 115.5,252.5C 89.0976,261.282 77.2642,279.615 80,307.5C 86.0026,328.677 99.8359,340.677 121.5,343.5C 100.419,346.982 86.5854,358.982 80,379.5C 76.9599,404.922 87.1266,422.588 110.5,432.5C 110.5,433.5 110.5,434.5 110.5,435.5C 100.781,435.782 91.1141,435.449 81.5,434.5C 21.9265,371.252 -0.240132,296.585 15,210.5C 24.7621,165.3 45.2621,125.967 76.5,92.5 Z"/></g>
<g><path style="opacity:1" fill="#ea2b3d" d="M 103.5,97.5 C 108.5,97.5 113.5,97.5 118.5,97.5C 118.217,98.2891 117.717,98.9558 117,99.5C 116.333,123.833 116.333,148.167 117,172.5C 117.717,173.044 118.217,173.711 118.5,174.5C 113.167,174.5 107.833,174.5 102.5,174.5C 102.013,173.527 101.513,172.527 101,171.5C 100.333,147.833 100.333,124.167 101,100.5C 101.698,99.3094 102.531,98.3094 103.5,97.5 Z"/></g>
<g><path style="opacity:1" fill="#fd3745" d="M 118.5,97.5 C 184.833,97.5 251.167,97.5 317.5,97.5C 317.5,123.167 317.5,148.833 317.5,174.5C 251.167,174.5 184.833,174.5 118.5,174.5C 118.217,173.711 117.717,173.044 117,172.5C 116.333,148.167 116.333,123.833 117,99.5C 117.717,98.9558 118.217,98.2891 118.5,97.5 Z"/></g>
<g><path style="opacity:1" fill="#b50f2d" d="M 317.5,97.5 C 347.833,97.5 378.167,97.5 408.5,97.5C 409.833,97.5 411.167,97.5 412.5,97.5C 412.5,123.167 412.5,148.833 412.5,174.5C 416.167,174.5 419.833,174.5 423.5,174.5C 423.5,174.833 423.5,175.167 423.5,175.5C 409.167,175.5 394.833,175.5 380.5,175.5C 348.5,175.5 316.5,175.5 284.5,175.5C 218.833,175.5 153.167,175.5 87.5,175.5C 87.5,175.167 87.5,174.833 87.5,174.5C 92.5,174.5 97.5,174.5 102.5,174.5C 107.833,174.5 113.167,174.5 118.5,174.5C 184.833,174.5 251.167,174.5 317.5,174.5C 317.5,148.833 317.5,123.167 317.5,97.5 Z"/></g>
<g><path style="opacity:1" fill="#fe3844" d="M 412.5,97.5 C 421.167,97.5 429.833,97.5 438.5,97.5C 446.615,105.617 453.615,114.617 459.5,124.5C 459.97,140.929 459.47,157.262 458,173.5C 446.581,174.488 435.081,174.821 423.5,174.5C 419.833,174.5 416.167,174.5 412.5,174.5C 412.5,148.833 412.5,123.167 412.5,97.5 Z"/></g>
<g><path style="opacity:0.988" fill="#fe951a" d="M 459.5,124.5 C 491.119,172.303 504.619,224.969 500,282.5C 495.005,335.703 475.172,382.369 440.5,422.5C 436.773,420.748 432.773,420.081 428.5,420.5C 428.5,399.833 428.5,379.167 428.5,358.5C 437.791,360.298 441.624,356.632 440,347.5C 438.544,345.535 436.71,344.201 434.5,343.5C 439.109,342.287 441.276,339.287 441,334.5C 438.409,329.456 434.242,327.456 428.5,328.5C 428.5,308.167 428.5,287.833 428.5,267.5C 436.538,268.606 440.705,265.272 441,257.5C 440.167,255.333 438.667,253.833 436.5,253C 432.179,252.501 427.846,252.334 423.5,252.5C 423.5,252.167 423.5,251.833 423.5,251.5C 424.496,251.586 425.329,251.252 426,250.5C 426.667,225.833 426.667,201.167 426,176.5C 425.329,175.748 424.496,175.414 423.5,175.5C 423.5,175.167 423.5,174.833 423.5,174.5C 435.081,174.821 446.581,174.488 458,173.5C 459.47,157.262 459.97,140.929 459.5,124.5 Z"/></g>
<g><path style="opacity:1" fill="#fff5f6" d="M 136.5,128.5 C 147.505,128.333 158.505,128.5 169.5,129C 170.667,129.5 171.5,130.333 172,131.5C 172.667,134.833 172.667,138.167 172,141.5C 171.167,142.333 170.333,143.167 169.5,144C 158.833,144.667 148.167,144.667 137.5,144C 134.334,142.334 133,139.668 133.5,136C 133.11,132.876 134.11,130.376 136.5,128.5 Z"/></g>
<g><path style="opacity:1" fill="#fff6f6" d="M 188.5,128.5 C 224.168,128.333 259.835,128.5 295.5,129C 297.949,130.863 298.949,133.363 298.5,136.5C 299.235,140.18 297.901,142.68 294.5,144C 259.5,144.667 224.5,144.667 189.5,144C 186.334,142.334 185,139.668 185.5,136C 185.11,132.876 186.11,130.376 188.5,128.5 Z"/></g>
<g><path style="opacity:1" fill="#1b2b63" d="M 87.5,174.5 C 87.5,174.833 87.5,175.167 87.5,175.5C 86.5041,175.414 85.6708,175.748 85,176.5C 84.3333,201.167 84.3333,225.833 85,250.5C 85.6708,251.252 86.5041,251.586 87.5,251.5C 87.5,251.833 87.5,252.167 87.5,252.5C 82.1563,252.666 76.8229,252.499 71.5,252C 70.3333,251.5 69.5,250.667 69,249.5C 68.3333,225.5 68.3333,201.5 69,177.5C 69.5,176.333 70.3333,175.5 71.5,175C 76.8229,174.501 82.1563,174.334 87.5,174.5 Z"/></g>
<g><path style="opacity:1" fill="#293d7c" d="M 87.5,175.5 C 153.167,175.5 218.833,175.5 284.5,175.5C 284.5,200.833 284.5,226.167 284.5,251.5C 218.833,251.5 153.167,251.5 87.5,251.5C 86.5041,251.586 85.6708,251.252 85,250.5C 84.3333,225.833 84.3333,201.167 85,176.5C 85.6708,175.748 86.5041,175.414 87.5,175.5 Z"/></g>
<g><path style="opacity:1" fill="#445d9d" d="M 284.5,175.5 C 316.5,175.5 348.5,175.5 380.5,175.5C 380.5,200.833 380.5,226.167 380.5,251.5C 394.833,251.5 409.167,251.5 423.5,251.5C 423.5,251.833 423.5,252.167 423.5,252.5C 320.833,252.5 218.167,252.5 115.5,252.5C 106.167,252.5 96.8333,252.5 87.5,252.5C 87.5,252.167 87.5,251.833 87.5,251.5C 153.167,251.5 218.833,251.5 284.5,251.5C 284.5,226.167 284.5,200.833 284.5,175.5 Z"/></g>
<g><path style="opacity:1" fill="#293d7b" d="M 380.5,175.5 C 394.833,175.5 409.167,175.5 423.5,175.5C 424.496,175.414 425.329,175.748 426,176.5C 426.667,201.167 426.667,225.833 426,250.5C 425.329,251.252 424.496,251.586 423.5,251.5C 409.167,251.5 394.833,251.5 380.5,251.5C 380.5,226.167 380.5,200.833 380.5,175.5 Z"/></g>
<g><path style="opacity:1" fill="#435d9f" d="M 103.5,206.5 C 115.171,206.333 126.838,206.5 138.5,207C 139,207.5 139.5,208 140,208.5C 140.667,211.833 140.667,215.167 140,218.5C 139.167,219.333 138.333,220.167 137.5,221C 126.5,221.667 115.5,221.667 104.5,221C 102.046,219.182 101.046,216.682 101.5,213.5C 101.319,210.837 101.985,208.503 103.5,206.5 Z"/></g>
<g><path style="opacity:1" fill="#435d9f" d="M 155.5,206.5 C 191.502,206.333 227.502,206.5 263.5,207C 264.416,207.374 265.25,207.874 266,208.5C 266.667,211.833 266.667,215.167 266,218.5C 265.167,219.333 264.333,220.167 263.5,221C 227.833,221.667 192.167,221.667 156.5,221C 154.051,219.137 153.051,216.637 153.5,213.5C 153.319,210.837 153.985,208.503 155.5,206.5 Z"/></g>
<g><path style="opacity:1" fill="#179490" d="M 115.5,252.5 C 218.167,252.5 320.833,252.5 423.5,252.5C 427.846,252.334 432.179,252.501 436.5,253C 438.667,253.833 440.167,255.333 441,257.5C 440.705,265.272 436.538,268.606 428.5,267.5C 329.833,267.5 231.167,267.5 132.5,267.5C 116.446,265.443 104.612,271.443 97,285.5C 90.7726,306.546 97.9393,320.713 118.5,328C 123.155,328.499 127.821,328.666 132.5,328.5C 231.167,328.5 329.833,328.5 428.5,328.5C 434.242,327.456 438.409,329.456 441,334.5C 441.276,339.287 439.109,342.287 434.5,343.5C 330.167,343.5 225.833,343.5 121.5,343.5C 99.8359,340.677 86.0026,328.677 80,307.5C 77.2642,279.615 89.0976,261.282 115.5,252.5 Z"/></g>
<g><path style="opacity:1" fill="#ecf5fe" d="M 132.5,267.5 C 116.178,282.432 113.345,299.766 124,319.5C 126.362,323.027 129.196,326.027 132.5,328.5C 127.821,328.666 123.155,328.499 118.5,328C 97.9393,320.713 90.7726,306.546 97,285.5C 104.612,271.443 116.446,265.443 132.5,267.5 Z"/></g>
<g><path style="opacity:1" fill="#fefeff" d="M 132.5,267.5 C 231.167,267.5 329.833,267.5 428.5,267.5C 428.5,287.833 428.5,308.167 428.5,328.5C 329.833,328.5 231.167,328.5 132.5,328.5C 129.196,326.027 126.362,323.027 124,319.5C 113.345,299.766 116.178,282.432 132.5,267.5 Z"/></g>
<g><path style="opacity:1" fill="#e82c3d" d="M 121.5,343.5 C 225.833,343.5 330.167,343.5 434.5,343.5C 436.71,344.201 438.544,345.535 440,347.5C 441.624,356.632 437.791,360.298 428.5,358.5C 324.999,358.167 221.665,358.501 118.5,359.5C 101.198,364.762 93.3648,376.429 95,394.5C 96.498,404.486 101.665,411.819 110.5,416.5C 110.5,421.833 110.5,427.167 110.5,432.5C 87.1266,422.588 76.9599,404.922 80,379.5C 86.5854,358.982 100.419,346.982 121.5,343.5 Z"/></g>
<g><path style="opacity:1" fill="#edf4fd" d="M 118.5,359.5 C 122.846,359.334 127.179,359.501 131.5,360C 122.093,367.982 117.426,378.148 117.5,390.5C 132.676,390.171 147.676,390.504 162.5,391.5C 150.5,391.5 138.5,391.5 126.5,391.5C 121.167,391.5 115.833,391.5 110.5,391.5C 110.5,399.833 110.5,408.167 110.5,416.5C 101.665,411.819 96.498,404.486 95,394.5C 93.3648,376.429 101.198,364.762 118.5,359.5 Z"/></g>
<g><path style="opacity:1" fill="#fefdfd" d="M 118.5,359.5 C 221.665,358.501 324.999,358.167 428.5,358.5C 428.5,379.167 428.5,399.833 428.5,420.5C 339.833,420.5 251.167,420.5 162.5,420.5C 162.5,410.833 162.5,401.167 162.5,391.5C 147.676,390.504 132.676,390.171 117.5,390.5C 117.426,378.148 122.093,367.982 131.5,360C 127.179,359.501 122.846,359.334 118.5,359.5 Z"/></g>
<g><path style="opacity:1" fill="#2b8bc0" d="M 126.5,391.5 C 126.5,408.5 126.5,425.5 126.5,442.5C 122.574,447.635 117.574,450.802 111.5,452C 110.527,446.593 110.193,441.093 110.5,435.5C 110.5,434.5 110.5,433.5 110.5,432.5C 110.5,427.167 110.5,421.833 110.5,416.5C 110.5,408.167 110.5,399.833 110.5,391.5C 115.833,391.5 121.167,391.5 126.5,391.5 Z"/></g>
<g><path style="opacity:1" fill="#2ea0db" d="M 126.5,391.5 C 138.5,391.5 150.5,391.5 162.5,391.5C 162.5,401.167 162.5,410.833 162.5,420.5C 162.5,425.5 162.5,430.5 162.5,435.5C 162.5,441.167 162.5,446.833 162.5,452.5C 161.127,452.657 159.793,452.49 158.5,452C 152.5,447.333 146.5,442.667 140.5,438C 138.167,437.333 135.833,437.333 133.5,438C 131.266,439.75 128.932,441.25 126.5,442.5C 126.5,425.5 126.5,408.5 126.5,391.5 Z"/></g>
<g><path style="opacity:0.998" fill="#e92c3c" d="M 162.5,420.5 C 251.167,420.5 339.833,420.5 428.5,420.5C 432.773,420.081 436.773,420.748 440.5,422.5C 442.205,426.935 441.539,430.935 438.5,434.5C 346.529,435.493 254.529,435.826 162.5,435.5C 162.5,430.5 162.5,425.5 162.5,420.5 Z"/></g>
<g><path style="opacity:0.983" fill="#984334" d="M 33.5,434.5 C 49.5,434.5 65.5,434.5 81.5,434.5C 91.1141,435.449 100.781,435.782 110.5,435.5C 110.193,441.093 110.527,446.593 111.5,452C 117.574,450.802 122.574,447.635 126.5,442.5C 128.932,441.25 131.266,439.75 133.5,438C 135.833,437.333 138.167,437.333 140.5,438C 146.5,442.667 152.5,447.333 158.5,452C 159.793,452.49 161.127,452.657 162.5,452.5C 162.5,446.833 162.5,441.167 162.5,435.5C 254.529,435.826 346.529,435.493 438.5,434.5C 461.836,434.333 485.169,434.5 508.5,435C 509.527,435.513 510.527,436.013 511.5,436.5C 511.5,447.167 511.5,457.833 511.5,468.5C 510.317,469.504 508.984,470.338 507.5,471C 465.835,471.5 424.168,471.667 382.5,471.5C 297.833,470.167 213.167,470.167 128.5,471.5C 97.1667,471.5 65.8333,471.5 34.5,471.5C 32.9916,470.254 31.4916,468.92 30,467.5C 29.3333,457.5 29.3333,447.5 30,437.5C 31.5185,436.837 32.6851,435.837 33.5,434.5 Z"/></g>
<g><path style="opacity:1" fill="#87352a" d="M 33.5,434.5 C 32.6851,435.837 31.5185,436.837 30,437.5C 29.3333,447.5 29.3333,457.5 30,467.5C 31.4916,468.92 32.9916,470.254 34.5,471.5C 24.1613,471.666 13.828,471.5 3.5,471C 2.01608,470.338 0.682751,469.504 -0.5,468.5C -0.5,457.833 -0.5,447.167 -0.5,436.5C 0.473444,436.013 1.47344,435.513 2.5,435C 12.828,434.5 23.1613,434.334 33.5,434.5 Z"/></g>
<g><path style="opacity:1" fill="#c77c49" d="M 128.5,471.5 C 213.167,470.167 297.833,470.167 382.5,471.5C 297.833,518.167 213.167,518.167 128.5,471.5 Z"/></g>
</svg>
