<?xml version="1.0" encoding="UTF-8"?>
<!DOCTYPE svg PUBLIC "-//W3C//DTD SVG 1.1//EN" "http://www.w3.org/Graphics/SVG/1.1/DTD/svg11.dtd">
<svg xmlns="http://www.w3.org/2000/svg" version="1.1" width="512px" height="512px" style="shape-rendering:geometricPrecision; text-rendering:geometricPrecision; image-rendering:optimizeQuality; fill-rule:evenodd; clip-rule:evenodd" xmlns:xlink="http://www.w3.org/1999/xlink">
<g><path style="opacity:1" fill="#f6b13e" d="M 511.5,125.5 C 511.5,133.833 511.5,142.167 511.5,150.5C 507.538,169.753 497.538,185.086 481.5,196.5C 480.5,266.83 480.167,337.164 480.5,407.5C 479.667,337.668 479.167,267.668 479,197.5C 469.396,203.646 458.896,207.313 447.5,208.5C 440.978,208.823 434.645,208.49 428.5,207.5C 472.432,193.479 490.432,163.479 482.5,117.5C 484.986,111.646 483.319,107.646 477.5,105.5C 466.711,86.3744 450.711,74.0411 429.5,68.5C 430.791,68.7373 431.791,68.404 432.5,67.5C 463.083,64.8749 486.583,76.5415 503,102.5C 506.559,110.023 509.393,117.689 511.5,125.5 Z"/></g>
<g><path style="opacity:0.996" fill="#fa6085" d="M 432.5,67.5 C 431.791,68.404 430.791,68.7373 429.5,68.5C 427.965,69.3543 426.632,69.3543 425.5,68.5C 427.717,67.6314 430.05,67.298 432.5,67.5 Z"/></g>
<g><path style="opacity:1" fill="#fec245" d="M 425.5,68.5 C 426.632,69.3543 427.965,69.3543 429.5,68.5C 450.711,74.0411 466.711,86.3744 477.5,105.5C 475.011,105.298 472.677,105.798 470.5,107C 456.319,121.347 441.986,135.514 427.5,149.5C 421.056,140.123 414.722,130.623 408.5,121C 399.895,118.266 396.062,121.433 397,130.5C 404.712,144.205 413.212,157.371 422.5,170C 425.303,170.755 427.97,170.422 430.5,169C 447.701,151.632 465.035,134.465 482.5,117.5C 490.432,163.479 472.432,193.479 428.5,207.5C 399.324,201.482 380.49,184.148 372,155.5C 370.624,145.97 370.124,136.637 370.5,127.5C 372.326,112.184 378.659,99.1836 389.5,88.5C 390.239,88.631 390.906,88.4643 391.5,88C 392.738,87.31 392.738,86.81 391.5,86.5C 398.853,79.151 407.519,73.8177 417.5,70.5C 417.56,71.0431 417.893,71.3764 418.5,71.5C 420.026,71.0057 421.359,70.339 422.5,69.5C 423.209,68.596 424.209,68.2627 425.5,68.5 Z"/></g>
<g><path style="opacity:0.875" fill="#ff57ad" d="M 422.5,69.5 C 421.359,70.339 420.026,71.0057 418.5,71.5C 417.893,71.3764 417.56,71.0431 417.5,70.5C 419.042,69.6993 420.708,69.366 422.5,69.5 Z"/></g>
<g><path style="opacity:0.859" fill="#ff59c0" d="M 391.5,86.5 C 392.738,86.81 392.738,87.31 391.5,88C 390.906,88.4643 390.239,88.631 389.5,88.5C 389.833,87.5 390.5,86.8333 391.5,86.5 Z"/></g>
<g><path style="opacity:1" fill="#9ca8da" d="M 477.5,105.5 C 483.319,107.646 484.986,111.646 482.5,117.5C 465.035,134.465 447.701,151.632 430.5,169C 427.97,170.422 425.303,170.755 422.5,170C 413.212,157.371 404.712,144.205 397,130.5C 396.062,121.433 399.895,118.266 408.5,121C 414.722,130.623 421.056,140.123 427.5,149.5C 441.986,135.514 456.319,121.347 470.5,107C 472.677,105.798 475.011,105.298 477.5,105.5 Z"/></g>
<g><path style="opacity:1" fill="#c6d1fd" d="M 370.5,127.5 C 370.124,136.637 370.624,145.97 372,155.5C 380.49,184.148 399.324,201.482 428.5,207.5C 434.645,208.49 440.978,208.823 447.5,208.5C 447.667,277.501 447.5,346.501 447,415.5C 442.478,431.191 432.311,440.858 416.5,444.5C 287.833,444.667 159.166,444.5 30.5,444C 14.7336,440.808 4.40027,431.641 -0.5,416.5C -0.5,330.833 -0.5,245.167 -0.5,159.5C 4.97535,143.2 16.3087,134.033 33.5,132C 145.5,131.5 257.5,131.333 369.5,131.5C 369.433,130.041 369.766,128.708 370.5,127.5 Z"/></g>
<g><path style="opacity:1" fill="#fdb13c" d="M 63.5,170.5 C 96.5017,170.333 129.502,170.5 162.5,171C 170,173.167 174.833,178 177,185.5C 177.667,211.167 177.667,236.833 177,262.5C 175.522,270.959 170.689,276.459 162.5,279C 129.833,279.667 97.1667,279.667 64.5,279C 57,276.833 52.1667,272 50,264.5C 49.3333,237.833 49.3333,211.167 50,184.5C 52.6873,177.981 57.1873,173.314 63.5,170.5 Z"/></g>
<g><path style="opacity:1" fill="#c7d1fd" d="M 66.5,186.5 C 79.5,186.5 92.5,186.5 105.5,186.5C 105.5,212.167 105.5,237.833 105.5,263.5C 92.2539,263.823 79.0872,263.489 66,262.5C 65.177,237.094 65.3436,211.761 66.5,186.5 Z"/></g>
<g><path style="opacity:1" fill="#c7d1fd" d="M 121.5,186.5 C 134.504,186.333 147.504,186.5 160.5,187C 161.486,196.75 161.819,206.584 161.5,216.5C 148.167,216.5 134.833,216.5 121.5,216.5C 121.5,206.5 121.5,196.5 121.5,186.5 Z"/></g>
<g><path style="opacity:1" fill="#8d9ee5" d="M 480.5,407.5 C 479.362,427.472 469.029,439.638 449.5,444C 438.505,444.5 427.505,444.667 416.5,444.5C 432.311,440.858 442.478,431.191 447,415.5C 447.5,346.501 447.667,277.501 447.5,208.5C 458.896,207.313 469.396,203.646 479,197.5C 479.167,267.668 479.667,337.668 480.5,407.5 Z"/></g>
<g><path style="opacity:1" fill="#e2c29d" d="M 121.5,186.5 C 121.5,196.5 121.5,206.5 121.5,216.5C 134.833,216.5 148.167,216.5 161.5,216.5C 148.01,217.496 134.344,217.829 120.5,217.5C 120.172,206.986 120.506,196.653 121.5,186.5 Z"/></g>
<g><path style="opacity:1" fill="#c7d1fc" d="M 121.5,232.5 C 134.833,232.5 148.167,232.5 161.5,232.5C 161.666,242.172 161.5,251.839 161,261.5C 160.5,262 160,262.5 159.5,263C 146.838,263.5 134.171,263.667 121.5,263.5C 121.5,253.167 121.5,242.833 121.5,232.5 Z"/></g>
<g><path style="opacity:1" fill="#fc4755" d="M 346.5,240.5 C 374.169,240.333 401.835,240.5 429.5,241C 430,241.5 430.5,242 431,242.5C 431.667,251.5 431.667,260.5 431,269.5C 430.5,270 430,270.5 429.5,271C 401.833,271.667 374.167,271.667 346.5,271C 346,270.5 345.5,270 345,269.5C 344.333,260.5 344.333,251.5 345,242.5C 345.717,241.956 346.217,241.289 346.5,240.5 Z"/></g>
<g><path style="opacity:1" fill="#e1e1e2" d="M 53.5,305.5 C 58.635,304.426 62.4683,306.093 65,310.5C 65.6667,318.167 65.6667,325.833 65,333.5C 62.305,339.098 58.1383,340.598 52.5,338C 51.1068,336.829 50.2735,335.329 50,333.5C 49.3333,325.833 49.3333,318.167 50,310.5C 50.9973,308.677 52.1639,307.01 53.5,305.5 Z"/></g>
<g><path style="opacity:1" fill="#e1e1e2" d="M 89.5,305.5 C 93.8027,304.796 97.3027,306.13 100,309.5C 100.667,317.5 100.667,325.5 100,333.5C 99.0183,337.624 96.3516,339.624 92,339.5C 88.4999,338.909 86.1666,336.909 85,333.5C 84.3333,325.833 84.3333,318.167 85,310.5C 86.0591,308.341 87.5591,306.674 89.5,305.5 Z"/></g>
<g><path style="opacity:1" fill="#e1e1e2" d="M 124.5,305.5 C 128.909,304.618 132.409,305.952 135,309.5C 135.667,317.833 135.667,326.167 135,334.5C 132.774,338.861 129.274,340.361 124.5,339C 122.951,337.786 121.785,336.286 121,334.5C 120.333,326.167 120.333,317.833 121,309.5C 122.376,308.295 123.542,306.962 124.5,305.5 Z"/></g>
<g><path style="opacity:1" fill="#e1e1e2" d="M 183.5,305.5 C 187.909,304.618 191.409,305.952 194,309.5C 194.667,317.833 194.667,326.167 194,334.5C 189.748,340.653 185.081,340.986 180,335.5C 179.333,326.833 179.333,318.167 180,309.5C 180.69,307.65 181.856,306.316 183.5,305.5 Z"/></g>
<g><path style="opacity:1" fill="#e1e1e2" d="M 218.5,305.5 C 220.857,305.337 223.19,305.503 225.5,306C 227.333,306.5 228.5,307.667 229,309.5C 229.667,318.167 229.667,326.833 229,335.5C 223.837,341.062 219.171,340.729 215,334.5C 214.333,326.167 214.333,317.833 215,309.5C 216.376,308.295 217.542,306.962 218.5,305.5 Z"/></g>
<g><path style="opacity:1" fill="#e1e1e2" d="M 254.5,305.5 C 259.28,304.641 262.78,306.308 265,310.5C 265.667,318.167 265.667,325.833 265,333.5C 262.416,339.141 258.249,340.641 252.5,338C 251.299,337.097 250.465,335.931 250,334.5C 249.333,326.5 249.333,318.5 250,310.5C 251.025,308.313 252.525,306.646 254.5,305.5 Z"/></g>
<g><path style="opacity:1" fill="#e1e1e2" d="M 289.5,305.5 C 293.803,304.796 297.303,306.13 300,309.5C 300.667,317.833 300.667,326.167 300,334.5C 295.701,340.496 291.034,340.829 286,335.5C 285.333,326.833 285.333,318.167 286,309.5C 286.69,307.65 287.856,306.316 289.5,305.5 Z"/></g>
<g><path style="opacity:1" fill="#e1e1e2" d="M 348.5,305.5 C 353.28,304.641 356.78,306.308 359,310.5C 359.667,318.5 359.667,326.5 359,334.5C 355.774,339.511 351.608,340.511 346.5,337.5C 345.416,336.335 344.583,335.002 344,333.5C 343.333,325.833 343.333,318.167 344,310.5C 345.025,308.313 346.525,306.646 348.5,305.5 Z"/></g>
<g><path style="opacity:1" fill="#e1e1e2" d="M 383.5,305.5 C 387.909,304.618 391.409,305.952 394,309.5C 394.667,317.833 394.667,326.167 394,334.5C 389.748,340.653 385.081,340.986 380,335.5C 379.333,326.833 379.333,318.167 380,309.5C 381.376,308.295 382.542,306.962 383.5,305.5 Z"/></g>
<g><path style="opacity:1" fill="#e1e1e2" d="M 418.5,305.5 C 423.635,304.426 427.468,306.093 430,310.5C 430.667,318.167 430.667,325.833 430,333.5C 427.265,339.122 423.099,340.622 417.5,338C 416.107,336.829 415.273,335.329 415,333.5C 414.333,325.5 414.333,317.5 415,309.5C 416.376,308.295 417.542,306.962 418.5,305.5 Z"/></g>
<g><path style="opacity:1" fill="#c0d5f2" d="M 55.5,360.5 C 132.501,360.333 209.501,360.5 286.5,361C 292.45,363.477 293.95,367.643 291,373.5C 290.097,374.701 288.931,375.535 287.5,376C 209.833,376.667 132.167,376.667 54.5,376C 47.6324,370.371 47.9657,365.205 55.5,360.5 Z"/></g>
<g><path style="opacity:1" fill="#c0d5f2" d="M 53.5,390.5 C 93.8347,390.333 134.168,390.5 174.5,391C 179.823,395.714 179.823,400.38 174.5,405C 134.167,405.667 93.8333,405.667 53.5,405C 48.232,400.171 48.232,395.337 53.5,390.5 Z"/></g>
</svg>
