<?xml version="1.0" encoding="UTF-8"?>
<!DOCTYPE svg PUBLIC "-//W3C//DTD SVG 1.1//EN" "http://www.w3.org/Graphics/SVG/1.1/DTD/svg11.dtd">
<svg xmlns="http://www.w3.org/2000/svg" version="1.1" width="512px" height="512px" style="shape-rendering:geometricPrecision; text-rendering:geometricPrecision; image-rendering:optimizeQuality; fill-rule:evenodd; clip-rule:evenodd" xmlns:xlink="http://www.w3.org/1999/xlink">
<g><path style="opacity:0.999" fill="#c5d0fc" d="M 349.5,194.5 C 349.062,194.565 348.728,194.399 348.5,194C 350.068,190.332 351.068,186.499 351.5,182.5C 352.165,179.686 352.498,176.686 352.5,173.5C 351.78,152.84 351.28,132.173 351,111.5C 349.6,108.098 347.433,105.264 344.5,103C 332.799,96.9927 320.466,92.9927 307.5,91C 288.572,88.5973 269.572,87.4306 250.5,87.5C 224.107,86.709 198.44,90.5423 173.5,99C 167.392,101.441 162.892,105.608 160,111.5C 159.714,132.34 159.214,153.173 158.5,174C 158.502,177.352 158.835,180.518 159.5,183.5C 159.692,186.601 160.358,189.601 161.5,192.5C 161.376,193.107 161.043,193.44 160.5,193.5C 141.603,185.719 122.937,177.386 104.5,168.5C 103.824,144.264 103.157,119.931 102.5,95.5C 151.788,68.5197 201.454,42.0197 251.5,16C 254.167,15.3333 256.833,15.3333 259.5,16C 330.557,52.9428 401.057,90.7762 471,129.5C 472.877,133.555 472.044,137.055 468.5,140C 428.936,158.463 389.269,176.629 349.5,194.5 Z"/></g>
<g><path style="opacity:1" fill="#9fc6e6" d="M 250.5,87.5 C 269.572,87.4306 288.572,88.5973 307.5,91C 320.466,92.9927 332.799,96.9927 344.5,103C 347.433,105.264 349.6,108.098 351,111.5C 351.28,132.173 351.78,152.84 352.5,173.5C 352.498,176.686 352.165,179.686 351.5,182.5C 349.88,178.358 347.214,174.858 343.5,172C 333.248,163.71 321.582,158.376 308.5,156C 277.682,149.888 246.682,148.888 215.5,153C 201.769,154.976 188.769,159.143 176.5,165.5C 175.338,147.671 175.171,129.671 176,111.5C 177.4,108.098 179.567,105.264 182.5,103C 194.102,96.7994 206.436,92.7994 219.5,91C 229.997,89.9522 240.331,88.7855 250.5,87.5 Z"/></g>
<g><path style="opacity:1" fill="#75addc" d="M 250.5,87.5 C 240.331,88.7855 229.997,89.9522 219.5,91C 206.436,92.7994 194.102,96.7994 182.5,103C 179.567,105.264 177.4,108.098 176,111.5C 175.171,129.671 175.338,147.671 176.5,165.5C 175.833,166.167 175.167,166.833 174.5,167.5C 169.54,171.288 164.707,175.288 160,179.5C 159.51,180.793 159.343,182.127 159.5,183.5C 158.835,180.518 158.502,177.352 158.5,174C 159.214,153.173 159.714,132.34 160,111.5C 162.892,105.608 167.392,101.441 173.5,99C 198.44,90.5423 224.107,86.709 250.5,87.5 Z"/></g>
<g><path style="opacity:1" fill="#ededed" d="M 102.5,95.5 C 103.157,119.931 103.824,144.264 104.5,168.5C 104.5,178.833 104.5,189.167 104.5,199.5C 103.167,199.5 101.833,199.5 100.5,199.5C 95.8333,199.5 91.1667,199.5 86.5,199.5C 86.5,186.5 86.5,173.5 86.5,160.5C 87.497,141.674 87.8303,122.674 87.5,103.5C 92.3335,100.582 97.3335,97.9157 102.5,95.5 Z"/></g>
<g><path style="opacity:0.999" fill="#c2ccfb" d="M 87.5,103.5 C 87.8303,122.674 87.497,141.674 86.5,160.5C 71.8204,153.77 57.1538,146.936 42.5,140C 37.1667,135.667 37.1667,131.333 42.5,127C 57.5536,119.141 72.5536,111.308 87.5,103.5 Z"/></g>
<g><path style="opacity:1" fill="#366287" d="M 351.5,182.5 C 351.068,186.499 350.068,190.332 348.5,194C 348.728,194.399 349.062,194.565 349.5,194.5C 347.035,201.296 343.702,207.629 339.5,213.5C 337.78,211.342 336.947,208.675 337,205.5C 335.773,203.274 333.939,201.774 331.5,201C 312.5,200.667 293.5,200.333 274.5,200C 255.934,194.765 245.101,182.598 242,163.5C 237.667,159.5 233.333,159.5 229,163.5C 226.194,190.13 211.361,202.463 184.5,200.5C 183.167,200.5 181.833,200.5 180.5,200.5C 175.809,190.026 173.809,179.026 174.5,167.5C 175.167,166.833 175.833,166.167 176.5,165.5C 188.769,159.143 201.769,154.976 215.5,153C 246.682,148.888 277.682,149.888 308.5,156C 321.582,158.376 333.248,163.71 343.5,172C 347.214,174.858 349.88,178.358 351.5,182.5 Z"/></g>
<g><path style="opacity:1" fill="#fecba9" d="M 339.5,213.5 C 361.318,221.135 368.818,236.135 362,258.5C 356.046,270.738 346.213,277.404 332.5,278.5C 326.152,293.17 316.819,305.503 304.5,315.5C 304.167,315.5 303.833,315.5 303.5,315.5C 280.463,330.474 255.796,333.974 229.5,326C 203.733,311.209 188.566,289.042 184,259.5C 183.191,239.79 183.358,220.123 184.5,200.5C 211.361,202.463 226.194,190.13 229,163.5C 233.333,159.5 237.667,159.5 242,163.5C 245.101,182.598 255.934,194.765 274.5,200C 293.5,200.333 312.5,200.667 331.5,201C 333.939,201.774 335.773,203.274 337,205.5C 336.947,208.675 337.78,211.342 339.5,213.5 Z"/></g>
<g><path style="opacity:1" fill="#1f4872" d="M 174.5,167.5 C 173.809,179.026 175.809,190.026 180.5,200.5C 178.321,200.84 176.488,201.84 175,203.5C 173.826,207.046 173.16,210.713 173,214.5C 172.617,213.944 172.117,213.611 171.5,213.5C 166.997,207.321 163.331,200.655 160.5,193.5C 161.043,193.44 161.376,193.107 161.5,192.5C 160.358,189.601 159.692,186.601 159.5,183.5C 159.343,182.127 159.51,180.793 160,179.5C 164.707,175.288 169.54,171.288 174.5,167.5 Z"/></g>
<g><path style="opacity:1" fill="#eab00c" d="M 86.5,199.5 C 91.1667,199.5 95.8333,199.5 100.5,199.5C 98.525,200.646 97.025,202.313 96,204.5C 95.3333,230.5 95.3333,256.5 96,282.5C 97.3597,285.023 99.193,287.023 101.5,288.5C 95.0749,288.87 88.7416,288.37 82.5,287C 81.2986,286.097 80.4652,284.931 80,283.5C 79.3333,256.833 79.3333,230.167 80,203.5C 81.2725,200.778 83.4392,199.444 86.5,199.5 Z"/></g>
<g><path style="opacity:1" fill="#fec929" d="M 100.5,199.5 C 101.833,199.5 103.167,199.5 104.5,199.5C 105.705,201.138 107.038,201.471 108.5,200.5C 109.5,200.833 110.167,201.5 110.5,202.5C 110.477,229.254 110.477,256.254 110.5,283.5C 110.489,285.017 109.823,286.184 108.5,287C 106.26,287.977 103.927,288.477 101.5,288.5C 99.193,287.023 97.3597,285.023 96,282.5C 95.3333,256.5 95.3333,230.5 96,204.5C 97.025,202.313 98.525,200.646 100.5,199.5 Z"/></g>
<g><path style="opacity:0.569" fill="#ff309b" d="M 104.5,199.5 C 105.959,199.433 107.292,199.766 108.5,200.5C 107.038,201.471 105.705,201.138 104.5,199.5 Z"/></g>
<g><path style="opacity:0.969" fill="#ff326f" d="M 110.5,202.5 C 111.827,229.598 111.827,256.598 110.5,283.5C 110.477,256.254 110.477,229.254 110.5,202.5 Z"/></g>
<g><path style="opacity:1" fill="#ffb689" d="M 180.5,200.5 C 181.833,200.5 183.167,200.5 184.5,200.5C 183.358,220.123 183.191,239.79 184,259.5C 188.566,289.042 203.733,311.209 229.5,326C 255.796,333.974 280.463,330.474 303.5,315.5C 303.5,320.833 303.5,326.167 303.5,331.5C 272.235,351.257 240.902,351.424 209.5,332C 209,331.5 208.5,331 208,330.5C 207.826,325.316 207.326,320.316 206.5,315.5C 194.181,305.503 184.848,293.17 178.5,278.5C 151.437,273.043 141.77,257.043 149.5,230.5C 154.223,221.47 161.557,215.803 171.5,213.5C 172.117,213.611 172.617,213.944 173,214.5C 173.16,210.713 173.826,207.046 175,203.5C 176.488,201.84 178.321,200.84 180.5,200.5 Z"/></g>
<g><path style="opacity:1" fill="#a0c6e6" d="M 303.5,315.5 C 303.833,315.5 304.167,315.5 304.5,315.5C 304.334,320.179 304.501,324.845 305,329.5C 308.256,327.571 311.756,327.071 315.5,328C 316.942,328.377 317.942,329.21 318.5,330.5C 318.062,330.435 317.728,330.601 317.5,331C 324.422,338.428 331.756,345.261 339.5,351.5C 340.167,351.5 340.833,351.5 341.5,351.5C 341.389,352.117 341.056,352.617 340.5,353C 343.769,356.453 344.269,360.286 342,364.5C 323.167,383.333 304.333,402.167 285.5,421C 281.5,424.333 277.5,424.333 273.5,421C 267.652,414.985 261.652,409.152 255.5,403.5C 249.014,409.485 242.681,415.652 236.5,422C 233.167,424 229.833,424 226.5,422C 207.333,402.833 188.167,383.667 169,364.5C 167.281,361.546 167.115,358.546 168.5,355.5C 168.953,354.542 169.619,353.708 170.5,353C 169.584,352.722 168.918,352.222 168.5,351.5C 169.552,351.649 170.552,351.483 171.5,351C 178.833,343.667 186.167,336.333 193.5,329C 196.351,327.711 199.351,327.211 202.5,327.5C 220.071,344.736 237.738,362.07 255.5,379.5C 271.854,363.812 287.854,347.812 303.5,331.5C 303.5,326.167 303.5,320.833 303.5,315.5 Z"/></g>
<g><path style="opacity:0.051" fill="#98e065" d="M 318.5,330.5 C 325.833,337.167 332.833,344.167 339.5,351.5C 331.756,345.261 324.422,338.428 317.5,331C 317.728,330.601 318.062,330.435 318.5,330.5 Z"/></g>
<g><path style="opacity:1" fill="#feccaa" d="M 206.5,315.5 C 207.326,320.316 207.826,325.316 208,330.5C 208.5,331 209,331.5 209.5,332C 240.902,351.424 272.235,351.257 303.5,331.5C 287.854,347.812 271.854,363.812 255.5,379.5C 237.738,362.07 220.071,344.736 202.5,327.5C 203.721,328.028 204.887,328.695 206,329.5C 206.499,324.845 206.666,320.179 206.5,315.5 Z"/></g>
<g><path style="opacity:1" fill="#7784cc" d="M 168.5,351.5 C 168.918,352.222 169.584,352.722 170.5,353C 169.619,353.708 168.953,354.542 168.5,355.5C 117.529,372.312 88.0287,407.312 80,460.5C 79.3333,470.167 79.3333,479.833 80,489.5C 80.5985,492.254 82.0985,494.254 84.5,495.5C 78.8236,495.666 73.1569,495.499 67.5,495C 65.6667,494.5 64.5,493.333 64,491.5C 61.1363,467.368 64.6363,444.368 74.5,422.5C 76.6664,420.139 78.6664,416.972 80.5,413C 80.2716,412.601 79.9382,412.435 79.5,412.5C 99.3882,378.045 129.055,357.711 168.5,351.5 Z"/></g>
<g><path style="opacity:1" fill="#c6d1fd" d="M 341.5,351.5 C 374.008,355.914 400.342,370.914 420.5,396.5C 421.136,398.795 422.469,400.461 424.5,401.5C 443.919,429.184 451.086,459.851 446,493.5C 445.25,494.126 444.416,494.626 443.5,495C 420.836,495.5 398.169,495.667 375.5,495.5C 375.667,481.163 375.5,466.829 375,452.5C 371.987,447.465 367.82,446.298 362.5,449C 361.299,449.903 360.465,451.069 360,452.5C 359.5,466.829 359.333,481.163 359.5,495.5C 290.167,495.5 220.833,495.5 151.5,495.5C 151.667,481.163 151.5,466.829 151,452.5C 147.911,447.695 143.744,446.528 138.5,449C 137.299,449.903 136.465,451.069 136,452.5C 135.5,466.829 135.333,481.163 135.5,495.5C 118.5,495.5 101.5,495.5 84.5,495.5C 82.0985,494.254 80.5985,492.254 80,489.5C 79.3333,479.833 79.3333,470.167 80,460.5C 88.0287,407.312 117.529,372.312 168.5,355.5C 167.115,358.546 167.281,361.546 169,364.5C 188.167,383.667 207.333,402.833 226.5,422C 229.833,424 233.167,424 236.5,422C 242.681,415.652 249.014,409.485 255.5,403.5C 261.652,409.152 267.652,414.985 273.5,421C 277.5,424.333 281.5,424.333 285.5,421C 304.333,402.167 323.167,383.333 342,364.5C 344.269,360.286 343.769,356.453 340.5,353C 341.056,352.617 341.389,352.117 341.5,351.5 Z"/></g>
<g><path style="opacity:0.745" fill="#9b52e2" d="M 420.5,396.5 C 422.543,397.579 423.876,399.246 424.5,401.5C 422.469,400.461 421.136,398.795 420.5,396.5 Z"/></g>
<g><path style="opacity:0.804" fill="#ca6f79" d="M 79.5,412.5 C 79.9382,412.435 80.2716,412.601 80.5,413C 78.6664,416.972 76.6664,420.139 74.5,422.5C 75.6589,418.849 77.3256,415.515 79.5,412.5 Z"/></g>
<g><path style="opacity:1" fill="#7184d1" d="M 151.5,495.5 C 146.167,495.5 140.833,495.5 135.5,495.5C 135.333,481.163 135.5,466.829 136,452.5C 136.465,451.069 137.299,449.903 138.5,449C 143.744,446.528 147.911,447.695 151,452.5C 151.5,466.829 151.667,481.163 151.5,495.5 Z"/></g>
<g><path style="opacity:1" fill="#7184d1" d="M 375.5,495.5 C 370.167,495.5 364.833,495.5 359.5,495.5C 359.333,481.163 359.5,466.829 360,452.5C 360.465,451.069 361.299,449.903 362.5,449C 367.82,446.298 371.987,447.465 375,452.5C 375.5,466.829 375.667,481.163 375.5,495.5 Z"/></g>
</svg>
